<?xml version="1.0" standalone="no"?>
<!DOCTYPE svg PUBLIC "-//W3C//DTD SVG 20010904//EN"
 "http://www.w3.org/TR/2001/REC-SVG-20010904/DTD/svg10.dtd">
<svg version="1.0" xmlns="http://www.w3.org/2000/svg"
 width="299.000000pt" height="168.000000pt" viewBox="0 0 299.000000 168.000000"
 preserveAspectRatio="xMidYMid meet">

<g transform="translate(0.000000,168.000000) scale(0.100000,-0.100000)"
fill="#000000" stroke="none">
<path d="M1150 1595 c-70 -16 -488 -27 -496 -13 -9 15 -41 8 -59 -12 -17 -19
-41 -29 -32 -12 3 4 -15 5 -39 3 -35 -2 -44 0 -44 13 0 27 -29 18 -51 -16 -25
-40 -20 -90 12 -125 l23 -23 -30 -31 c-40 -43 -139 -89 -191 -89 -35 0 -48 6
-70 30 -23 26 -71 44 -61 23 23 -48 34 -62 58 -76 32 -19 79 -22 129 -7 19 5
36 8 39 6 2 -2 -3 -17 -12 -34 -11 -22 -24 -31 -53 -36 -55 -9 -108 -7 -138 4
-20 8 -27 7 -31 -5 -15 -38 92 -269 132 -287 29 -13 48 -6 459 176 413 183
667 318 651 344 -3 5 4 21 15 38 27 42 24 75 -11 109 -37 35 -103 42 -200 20z
m-204 -112 c-62 -215 -63 -216 -108 -227 l-27 -6 29 107 c16 60 30 112 30 116
0 9 38 26 63 26 13 1 17 -4 13 -16z m-126 -11 c0 -5 -9 -36 -20 -70 -11 -34
-26 -87 -33 -119 -12 -52 -16 -57 -50 -69 -20 -7 -37 -10 -37 -7 0 27 66 248
77 259 15 15 63 19 63 6z m-164 -161 c-19 -66 -37 -125 -40 -130 -3 -5 -19
-14 -36 -19 -25 -9 -30 -8 -30 4 0 12 31 130 56 217 3 9 10 17 16 17 5 0 21 9
35 20 15 11 28 19 30 17 2 -2 -12 -59 -31 -126z m514 85 c0 -2 -7 -7 -16 -10
-8 -3 -12 -2 -9 4 6 10 25 14 25 6z m-60 -35 c0 -10 -62 -41 -82 -41 -7 1 7
12 32 25 53 28 50 27 50 16z"/>
<path d="M1891 1542 c-15 -11 -6 -52 11 -52 6 0 6 -6 -2 -15 -7 -8 -16 -13
-20 -10 -4 3 -11 -2 -14 -11 -3 -8 -2 -13 3 -10 5 3 12 -2 15 -11 4 -9 2 -20
-5 -23 -8 -6 -8 -9 1 -15 6 -4 17 1 24 10 11 15 15 15 33 4 21 -13 21 -13 2
-38 -20 -25 -20 -25 0 -33 19 -7 30 -38 14 -38 -13 0 -73 51 -73 63 -1 13 -34
57 -44 57 -3 0 -6 -12 -6 -26 0 -43 64 -107 260 -262 19 -15 62 -45 95 -66 33
-22 76 -50 96 -63 19 -12 43 -23 52 -23 9 0 17 -4 17 -9 0 -4 21 -14 48 -21
26 -7 52 -17 59 -22 7 -6 17 -7 23 -3 6 4 16 2 23 -3 44 -34 325 -47 372 -16
42 28 32 43 -22 33 -25 -5 -49 -7 -51 -4 -3 3 1 5 9 5 14 0 49 48 49 68 0 24
-140 55 -315 68 -44 4 -86 11 -92 16 -9 7 -17 7 -26 0 -10 -8 -23 -8 -50 0
-37 11 -50 28 -22 28 8 0 15 5 15 10 0 6 -4 10 -9 10 -6 0 -13 -4 -16 -10 -3
-5 -18 -10 -33 -10 -25 -1 -25 -2 -8 -12 19 -11 19 -11 1 -24 -18 -13 -17 -14
6 -14 14 0 34 -6 45 -14 15 -12 17 -17 7 -27 -10 -10 -13 -10 -13 -1 0 7 -3
11 -7 11 -21 -3 -33 2 -27 13 4 7 3 8 -4 4 -13 -8 -96 37 -86 46 3 3 -1 5 -9
4 -14 -1 -51 22 -100 65 l-30 26 32 11 c30 10 35 9 52 -11 10 -12 18 -25 19
-29 0 -5 7 -8 15 -8 8 0 15 -5 15 -11 0 -5 4 -8 9 -5 10 7 2 56 -9 56 -5 0
-11 -6 -13 -12 -4 -10 -6 -10 -6 0 -1 7 9 17 22 21 21 9 20 10 -12 22 l-34 12
29 24 c20 16 23 22 9 17 -11 -4 -17 -4 -13 0 3 4 17 9 30 11 12 2 39 8 59 13
29 7 40 6 58 -9 30 -25 51 -14 51 26 0 20 6 35 15 39 10 4 15 -1 15 -14 0 -23
15 -27 24 -5 3 8 0 15 -7 15 -8 0 -8 3 -2 8 17 11 12 27 -22 75 -31 43 -36 45
-88 49 -32 2 -55 -1 -55 -7 0 -5 -4 -4 -9 4 -7 11 -17 12 -48 4 -35 -9 -50 -6
-114 19 -77 31 -193 47 -218 30z m519 -115 c0 -6 7 -19 17 -29 15 -17 15 -18
-6 -18 -15 0 -20 4 -15 13 4 6 -1 4 -12 -5 -31 -27 -72 -38 -120 -31 l-46 6
33 14 c17 7 38 21 45 31 8 10 13 12 14 5 0 -7 10 -12 23 -12 16 1 18 2 5 6
-14 3 -16 9 -8 23 8 14 6 19 -8 23 -14 3 -12 6 8 14 21 9 29 7 48 -10 12 -11
22 -25 22 -30z m-192 19 c3 -11 0 -16 -7 -12 -15 10 -51 -12 -51 -30 0 -8 3
-13 8 -11 4 3 7 -12 7 -33 1 -34 -1 -36 -17 -26 -10 6 -18 19 -18 29 0 10 5
15 10 12 6 -4 8 -10 5 -15 -3 -5 -1 -11 4 -14 10 -7 9 9 -4 37 -6 14 -10 16
-16 6 -4 -8 -11 -10 -15 -6 -4 4 0 15 9 25 23 26 22 28 -16 28 l-33 -1 2 -55
c1 -30 -1 -41 -3 -25 -4 24 -14 34 -51 52 -34 16 -49 19 -59 11 -8 -6 -17 -8
-20 -4 -12 12 20 26 61 26 31 0 37 -3 32 -16 -4 -10 -1 -14 6 -12 7 3 13 11
13 19 0 16 74 38 120 36 20 -1 31 -8 33 -21z m92 4 c0 -5 -2 -10 -4 -10 -3 0
-8 5 -11 10 -3 6 -1 10 4 10 6 0 11 -4 11 -10z m-45 -16 c-9 -9 -19 -13 -23
-10 -3 4 0 11 8 16 24 15 33 11 15 -6z m-135 -8 c0 -3 -4 -8 -10 -11 -5 -3
-10 -1 -10 4 0 6 5 11 10 11 6 0 10 -2 10 -4z m88 -53 c2 -35 -1 -52 -11 -56
-10 -4 -14 9 -15 55 -2 75 22 77 26 1z m-233 17 c3 -5 1 -10 -4 -10 -6 0 -11
5 -11 10 0 6 2 10 4 10 3 0 8 -4 11 -10z m18 -35 c-3 -9 -8 -14 -10 -11 -3 3
-2 9 2 15 9 16 15 13 8 -4z m64 9 c-3 -3 -12 -4 -19 -1 -8 3 -5 6 6 6 11 1 17
-2 13 -5z m102 -53 c11 -7 9 -10 -8 -16 -13 -4 -25 -4 -28 -1 -4 3 2 7 13 7
12 1 7 4 -11 9 -28 7 -28 8 -5 9 14 0 31 -3 39 -8z m-59 -21 c12 -8 11 -10 -7
-10 -13 0 -23 5 -23 10 0 13 11 13 30 0z m-109 -27 c13 -16 12 -17 -3 -4 -17
13 -22 21 -14 21 2 0 10 -8 17 -17z m34 -13 c-3 -5 -1 -10 4 -10 6 0 11 -5 11
-11 0 -8 -5 -8 -15 1 -13 11 -12 30 1 30 3 0 2 -4 -1 -10z m365 -229 c0 -12
42 -25 128 -38 17 -3 32 -10 32 -15 0 -12 -46 -3 -127 24 -34 12 -60 25 -57
30 7 11 24 10 24 -1z m217 -67 c-3 -3 -12 -4 -19 -1 -8 3 -5 6 6 6 11 1 17 -2
13 -5z m166 -21 c-7 -2 -19 -2 -25 0 -7 3 -2 5 12 5 14 0 19 -2 13 -5z"/>
<path d="M2528 1403 c6 -2 18 -2 25 0 6 3 1 5 -13 5 -14 0 -19 -2 -12 -5z"/>
<path d="M1917 1393 c-4 -3 -7 -11 -7 -17 0 -6 5 -5 12 2 6 6 9 14 7 17 -3 3
-9 2 -12 -2z"/>
<path d="M2120 1190 c0 -5 5 -10 10 -10 6 0 10 5 10 10 0 6 -4 10 -10 10 -5 0
-10 -4 -10 -10z"/>
<path d="M2153 1170 c-1 -11 2 -20 8 -20 5 0 9 9 9 20 0 11 -4 20 -8 20 -4 0
-8 -9 -9 -20z"/>
<path d="M1351 1164 c0 -11 3 -14 6 -6 3 7 2 16 -1 19 -3 4 -6 -2 -5 -13z"/>
<path d="M2185 1140 c3 -5 11 -10 16 -10 6 0 7 5 4 10 -3 6 -11 10 -16 10 -6
0 -7 -4 -4 -10z"/>
<path d="M1465 1101 c-3 -5 -1 -12 5 -16 5 -3 10 1 10 9 0 18 -6 21 -15 7z"/>
<path d="M1351 1076 c-5 -6 -37 -25 -70 -41 -60 -28 -94 -63 -48 -50 38 12
128 59 143 76 13 15 13 17 0 22 -8 3 -19 0 -25 -7z"/>
<path d="M913 855 c0 -22 2 -30 4 -17 2 12 2 30 0 40 -3 9 -5 -1 -4 -23z"/>
<path d="M1910 784 c-25 -7 -56 -13 -69 -13 -13 -1 -22 -4 -18 -7 7 -8 128 14
148 27 20 12 -3 10 -61 -7z"/>
<path d="M1773 753 c9 -2 23 -2 30 0 6 3 -1 5 -18 5 -16 0 -22 -2 -12 -5z"/>
<path d="M901 734 c0 -11 3 -14 6 -6 3 7 2 16 -1 19 -3 4 -6 -2 -5 -13z"/>
<path d="M2191 694 c-22 -29 -27 -59 -11 -69 26 -16 4 -21 -52 -12 -46 7 -78
20 -120 48 -32 22 -66 39 -77 39 -20 0 -85 -66 -95 -97 -5 -17 -15 -18 -118
-14 -128 4 -138 -2 -138 -73 0 -23 -7 -75 -16 -116 -9 -41 -18 -109 -21 -151
l-5 -76 35 -7 c20 -4 65 -2 102 4 58 9 76 8 143 -11 68 -19 92 -21 207 -16
185 9 505 63 549 93 24 16 12 22 -54 26 -33 2 3 11 131 31 97 16 182 33 189
37 17 10 -14 20 -69 23 -51 2 -43 9 38 40 36 13 67 29 69 35 3 10 -60 82 -72
82 -2 0 -22 18 -44 40 l-39 40 -65 -15 c-61 -14 -172 -15 -185 -1 -4 3 0 6 8
7 8 0 -8 11 -36 24 -27 14 -59 30 -70 37 -134 87 -152 92 -184 52z m-281 -40
c0 -9 -5 -13 -12 -9 -7 4 -4 -1 6 -9 11 -9 23 -16 28 -16 16 0 7 -18 -26 -55
-38 -41 -51 -31 -29 24 8 18 12 40 8 49 -3 8 0 19 7 24 17 11 18 10 18 -8z
m289 5 c4 6 17 2 34 -13 l27 -24 -27 -7 c-29 -7 -54 14 -52 44 0 12 2 13 6 2
4 -9 8 -10 12 -2z m-69 -69 c8 -5 11 -10 5 -10 -5 0 -17 5 -25 10 -8 5 -10 10
-5 10 6 0 17 -5 25 -10z m327 -6 c-3 -3 -12 -4 -19 -1 -8 3 -5 6 6 6 11 1 17
-2 13 -5z m-227 -73 l55 -18 -63 -8 c-68 -8 -97 0 -41 12 l34 7 -40 12 c-22 7
-31 13 -20 13 11 0 45 -8 75 -18z m392 3 c-12 -8 -28 -13 -35 -11 -7 3 -1 9
13 15 37 16 47 14 22 -4z m-151 -31 c13 -16 12 -17 -3 -4 -10 7 -18 15 -18 17
0 8 8 3 21 -13z m-146 -33 c3 -5 -6 -12 -20 -16 -14 -3 -25 -9 -25 -13 0 -4
-20 -8 -45 -9 -62 -2 -56 13 13 31 72 19 70 19 77 7z m-145 -44 c0 -9 -30 -14
-35 -6 -4 6 3 10 14 10 12 0 21 -2 21 -4z"/>
<path d="M500 647 c-25 -13 -69 -38 -99 -56 -115 -69 -167 -90 -217 -89 -67 1
-94 -39 -59 -86 19 -25 19 -62 1 -69 -8 -3 -14 -14 -14 -24 1 -10 -4 -46 -12
-81 -9 -45 -10 -66 -2 -74 15 -15 214 -74 334 -99 79 -16 125 -19 198 -15 52
2 97 6 100 7 3 1 9 1 14 0 5 -1 16 1 25 5 9 4 27 8 40 10 13 2 31 6 40 10 9 3
34 8 56 10 22 2 47 7 55 10 8 4 31 8 52 9 20 2 51 8 70 13 18 6 53 16 78 23
25 7 48 17 51 22 7 9 -12 87 -21 87 -3 0 -4 16 -2 35 3 25 -1 42 -13 55 -11
13 -16 30 -13 50 4 24 1 30 -14 30 -24 0 -23 16 2 23 26 7 26 43 1 57 -28 15
-58 12 -65 -5 -4 -12 -16 -14 -61 -9 -36 5 -59 3 -69 -5 -9 -7 -17 -8 -20 -2
-3 5 0 12 6 14 9 4 10 6 1 6 -6 1 -15 -4 -18 -9 -5 -8 -11 -7 -21 1 -8 6 -14
8 -14 5 0 -4 -10 -1 -22 6 -13 7 -25 13 -28 13 -18 4 -60 30 -60 37 0 5 -4 7
-8 4 -5 -3 -30 6 -55 19 -25 14 -53 25 -62 25 -9 0 -13 5 -10 10 8 13 -8 13
-21 0 -6 -6 -10 0 -9 18 0 24 -4 27 -35 30 -22 1 -52 -6 -80 -21z m44 -52
c-10 -8 -23 -14 -29 -14 -5 0 -1 6 9 14 11 8 24 15 30 15 5 0 1 -7 -10 -15z
m-54 -15 c-14 -9 -16 -13 -19 -45 -1 -17 -61 -51 -61 -35 0 5 -5 10 -11 10 -5
0 -8 -4 -4 -9 3 -5 -9 -14 -27 -19 -38 -12 -108 -23 -108 -17 0 2 25 15 55 29
30 14 55 29 55 35 0 5 15 13 33 17 17 3 43 15 56 25 13 11 29 19 35 19 6 0 4
-5 -4 -10z m160 -43 c-8 -7 -15 -21 -15 -31 0 -11 -6 -20 -13 -22 -7 -1 -8 0
-2 3 16 8 12 33 -5 27 -8 -4 -15 -16 -15 -28 0 -15 -9 -27 -25 -34 -31 -14
-46 -15 -25 -2 26 16 4 21 -31 6 -19 -9 -27 -16 -19 -16 10 -1 9 -4 -5 -10
-28 -12 -47 -12 -40 0 3 6 -4 10 -15 10 -15 0 -20 -5 -17 -14 4 -10 1 -13 -9
-9 -7 3 -22 2 -31 -2 -28 -13 -44 -14 -37 -4 3 5 10 7 15 4 5 -4 9 -2 9 3 0 5
24 17 54 27 30 10 53 21 51 24 -2 3 7 7 18 7 37 2 69 13 86 27 16 15 72 46 81
46 3 0 -2 -5 -10 -12z m20 -27 c0 -5 -2 -10 -4 -10 -3 0 -8 5 -11 10 -3 6 -1
10 4 10 6 0 11 -4 11 -10z m50 -16 c0 -2 -7 -4 -15 -4 -8 0 -15 4 -15 10 0 5
7 7 15 4 8 -4 15 -8 15 -10z m260 -14 c0 -5 -4 -10 -10 -10 -5 0 -10 5 -10 10
0 6 5 10 10 10 6 0 10 -4 10 -10z m30 -10 c0 -5 -2 -10 -4 -10 -3 0 -8 5 -11
10 -3 6 -1 10 4 10 6 0 11 -4 11 -10z m90 -29 c0 -9 -3 -12 -8 -6 -4 6 -13 10
-19 11 -27 2 -33 4 -33 12 0 5 14 7 30 4 19 -3 30 -10 30 -21z m-325 -2 c11
-17 -1 -21 -15 -4 -8 9 -8 15 -2 15 6 0 14 -5 17 -11z m-455 -13 c0 -2 -7 -7
-16 -10 -8 -3 -12 -2 -9 4 6 10 25 14 25 6z m0 -31 c-7 -8 -18 -15 -24 -15 -6
0 -2 7 8 15 25 19 32 19 16 0z m177 9 c-3 -3 -12 -4 -19 -1 -8 3 -5 6 6 6 11
1 17 -2 13 -5z m-172 -144 c3 -6 -1 -7 -9 -4 -18 7 -21 14 -7 14 6 0 13 -4 16
-10z m175 -40 c20 -6 21 -8 5 -8 -11 0 -29 3 -40 8 -25 11 1 11 35 0z m167
-16 c-3 -3 -12 -4 -19 -1 -8 3 -5 6 6 6 11 1 17 -2 13 -5z"/>
<path d="M725 600 c-8 -13 9 -20 24 -11 10 6 9 10 -3 14 -8 3 -18 2 -21 -3z"/>
<path d="M804 558 c-4 -7 -3 -8 5 -4 6 4 14 1 17 -8 3 -8 12 -12 20 -9 11 4
11 7 -1 19 -17 17 -31 18 -41 2z"/>
<path d="M876 518 c3 -5 9 -7 12 -4 3 3 11 1 19 -5 9 -9 13 -8 13 0 0 6 -3 11
-7 12 -5 0 -16 2 -26 4 -9 2 -14 -1 -11 -7z"/>
</g>
</svg>
