<?xml version="1.0" standalone="no"?>
<!DOCTYPE svg PUBLIC "-//W3C//DTD SVG 20010904//EN"
 "http://www.w3.org/TR/2001/REC-SVG-20010904/DTD/svg10.dtd">
<svg version="1.0" xmlns="http://www.w3.org/2000/svg"
 width="197.000000pt" height="255.000000pt" viewBox="0 0 197.000000 255.000000"
 preserveAspectRatio="xMidYMid meet">

<g transform="translate(0.000000,255.000000) scale(0.100000,-0.100000)"
fill="#000000" stroke="none">
<path d="M1095 1875 c-35 -17 -152 -19 -213 -4 -36 8 -61 5 -134 -13 -50 -12
-105 -32 -122 -44 -17 -13 -78 -55 -136 -93 -58 -39 -114 -77 -124 -84 -18
-13 -16 -19 53 -129 l72 -116 40 5 40 6 -4 -351 c-3 -246 0 -352 7 -354 6 -2
192 -2 414 0 l404 2 -6 63 c-3 34 -7 195 -8 357 -3 331 -11 299 69 284 30 -6
34 -3 60 40 15 26 47 77 71 113 23 36 40 68 37 73 -2 4 -44 29 -92 56 -48 27
-114 69 -147 93 -36 26 -93 55 -141 71 -44 15 -87 30 -95 33 -8 3 -28 -1 -45
-8z m-82 -50 c-4 -15 -66 -12 -71 3 -3 10 6 13 34 10 22 -2 38 -7 37 -13z"/>
</g>
</svg>
