<svg version="1.1" id="Layer_1" xmlns="http://www.w3.org/2000/svg" xmlns:xlink="http://www.w3.org/1999/xlink" x="0px" y="0px"
	 width="100%" viewBox="0 0 576 400" enable-background="new 0 0 576 400" xml:space="preserve">
<path fill="#000000" opacity="1.000000" stroke="none" 
	d="
M233.999954,69.162346 
	C215.505768,69.171761 197.508530,69.367302 179.519287,69.073036 
	C174.313293,68.987877 172.808014,70.708664 173.184128,75.667328 
	C173.586258,80.969193 173.391113,86.326126 173.265442,91.654510 
	C173.193436,94.707825 174.475143,95.739487 177.439896,95.708374 
	C188.101883,95.596458 198.766144,95.584633 209.428329,95.677246 
	C212.707794,95.705727 213.986954,94.287720 213.758316,91.153900 
	C213.685791,90.159706 213.746506,89.155365 213.755371,88.155746 
	C213.806534,82.388428 218.053192,79.714958 223.280640,82.099167 
	C224.955994,82.863281 225.229462,84.261551 225.232559,85.799599 
	C225.253036,95.962578 225.209305,106.125793 225.261765,116.288551 
	C225.282578,120.321495 222.528061,120.210320 219.774033,120.188461 
	C216.943619,120.166000 213.773071,120.631432 213.767380,116.267326 
	C213.767166,116.100777 213.764786,115.933777 213.752808,115.767761 
	C213.058823,106.153130 213.058945,106.189125 203.081421,106.250740 
	C194.751114,106.302177 186.416306,106.405716 178.091400,106.185982 
	C174.330795,106.086723 173.104752,107.463333 173.233688,111.122765 
	C173.450623,117.279686 173.373825,123.451645 173.250168,129.613861 
	C173.189514,132.636078 174.421341,133.715805 177.401947,133.706284 
	C202.060257,133.627594 226.718964,133.604446 251.377289,133.667633 
	C255.297592,133.677673 256.741028,131.934586 256.638733,128.199463 
	C256.520172,123.871223 256.765137,119.531967 256.611237,115.206070 
	C256.470825,111.259140 258.978668,110.905579 261.841309,111.045143 
	C264.786224,111.188705 268.894958,109.851753 269.019226,114.818787 
	C269.235809,123.475754 269.075623,132.142670 269.033661,140.805222 
	C269.021820,143.242981 267.737122,144.467270 265.257843,144.364410 
	C264.759033,144.343704 264.258362,144.369354 263.758545,144.371552 
	C221.947189,144.554886 180.135834,144.734161 138.324524,144.928253 
	C134.822037,144.944534 131.748306,145.040771 131.621475,139.944534 
	C131.503784,135.215637 132.904709,133.296951 137.809937,133.594589 
	C143.454086,133.937027 149.136261,133.599609 154.799072,133.707855 
	C158.016983,133.769379 159.717438,132.834290 159.696716,129.183868 
	C159.590744,110.523857 159.615891,91.862686 159.702209,73.202415 
	C159.716537,70.106827 158.387741,69.110069 155.489258,69.156273 
	C149.492844,69.251877 143.485382,68.977791 137.498398,69.231636 
	C133.175247,69.414948 131.642807,67.846313 131.624664,63.474876 
	C131.606705,59.153236 132.966217,57.659031 137.374725,57.674084 
	C176.861557,57.808952 216.349014,57.758625 255.836288,57.761524 
	C258.835266,57.761745 261.835999,57.814209 264.832764,57.730305 
	C267.791992,57.647453 269.113434,59.074280 269.108948,61.942921 
	C269.095612,70.439667 269.186005,78.937920 269.050964,87.432648 
	C268.968964,92.591309 264.869904,91.042198 261.990784,91.226242 
	C259.230713,91.402687 256.515411,91.368416 256.621033,87.299355 
	C256.742035,82.637787 256.530640,77.967735 256.644745,73.305801 
	C256.718201,70.302788 255.456024,69.103363 252.491745,69.148209 
	C246.495789,69.238937 240.497345,69.166901 233.999954,69.162346 
z"/>
<path fill="#000000" opacity="1.000000" stroke="none" 
	d="
M178.395050,268.298340 
	C174.399445,270.747833 172.055130,273.914764 172.594467,278.350311 
	C173.129532,282.750702 176.637497,284.648163 180.343170,285.996338 
	C190.627563,289.737762 201.491302,290.355133 212.214188,291.621552 
	C224.778458,293.105438 237.356781,294.442688 249.617264,297.734192 
	C254.129578,298.945557 258.553101,300.447754 262.554535,302.929260 
	C274.530090,310.355988 275.177429,326.684052 263.545685,334.675720 
	C251.653671,342.846222 238.011383,343.584564 224.194382,342.695862 
	C206.245041,341.541321 189.661652,335.919373 174.153656,326.936646 
	C173.309097,326.447479 172.367065,326.126556 171.187057,325.601135 
	C169.690109,329.468048 170.401703,333.298126 170.428818,336.998810 
	C170.456985,340.843750 168.346939,341.548248 165.332672,341.206268 
	C162.388580,340.872162 157.954132,342.894531 157.839081,337.357178 
	C157.669525,329.196899 157.776794,321.030975 157.751678,312.867523 
	C157.746048,311.036255 158.241776,309.502106 160.238907,309.082184 
	C162.762833,308.551483 165.203201,307.361237 167.740219,309.623688 
	C173.620728,314.867767 180.321716,318.919159 187.487442,322.180084 
	C205.327606,330.298706 223.906967,333.685730 243.430206,330.697693 
	C247.242325,330.114197 250.908264,328.921082 253.955307,326.413239 
	C259.466492,321.877289 258.869568,315.027802 252.505493,311.849060 
	C242.744583,306.973633 231.941147,306.644745 221.411743,305.293365 
	C207.889771,303.557861 194.206482,302.927460 180.990265,299.190796 
	C176.821457,298.012146 172.690750,296.716461 168.905151,294.529205 
	C155.096741,286.551025 154.576553,268.898407 167.937286,260.013336 
	C175.240509,255.156540 183.596008,253.620880 192.110153,252.832703 
	C213.069275,250.892471 232.450546,255.509979 250.119217,267.055298 
	C250.939789,267.591492 251.730148,268.263916 253.665634,267.658020 
	C253.665634,264.690979 253.795959,261.431763 253.632355,258.187317 
	C253.432129,254.216995 256.021545,253.879761 258.854767,254.038513 
	C261.762024,254.201416 265.899261,252.772141 266.029388,257.791351 
	C266.236511,265.782074 266.066772,273.782715 266.043640,281.779114 
	C266.037689,283.844208 265.112823,285.216766 263.058441,285.849548 
	C260.331329,286.689545 258.064972,286.587982 255.794586,284.337830 
	C245.927368,274.558563 233.902847,268.492584 220.403397,265.923828 
	C206.442245,263.267273 192.324387,261.970856 178.395050,268.298340 
z"/>
<path fill="#000000" opacity="1.000000" stroke="none" 
	d="
M321.293152,132.967896 
	C326.082245,134.151291 330.755280,133.663635 335.389160,133.598190 
	C339.515106,133.539917 339.948090,135.851883 339.919891,139.035782 
	C339.891479,142.244461 339.309113,144.423309 335.254364,144.391907 
	C318.260376,144.260269 301.264282,144.290787 284.269928,144.403625 
	C280.805298,144.426620 279.329315,143.114182 279.650665,139.696396 
	C279.819183,137.904099 279.309723,136.036743 280.603424,133.617065 
	C286.855591,133.617065 293.468933,133.538620 300.078827,133.654800 
	C302.807220,133.702759 304.889191,132.909637 306.527161,130.670044 
	C321.078247,110.774406 335.664886,90.904747 350.231201,71.020241 
	C350.418396,70.764717 350.477692,70.415482 350.745239,69.728706 
	C345.807922,68.594635 340.869293,69.115097 336.011017,69.217606 
	C331.656708,69.309486 330.703491,67.282745 330.705994,63.408306 
	C330.708557,59.504921 331.740448,57.683990 336.059753,57.718441 
	C355.386169,57.872570 374.715149,57.832512 394.042053,57.697952 
	C397.785706,57.671894 399.171997,59.145699 398.978210,62.726341 
	C398.803986,65.945549 399.195221,69.304817 394.285522,69.145721 
	C389.367096,68.986336 384.439453,69.110710 378.309784,69.110710 
	C382.941833,75.529961 386.771393,80.900192 390.666321,86.222618 
	C401.093323,100.471245 411.627472,114.642525 421.935669,128.976395 
	C424.443878,132.464127 427.306702,133.978516 431.599152,133.696762 
	C436.410339,133.380920 441.264618,133.778381 446.088348,133.579636 
	C450.907135,133.381104 450.203400,136.637924 450.357208,139.624268 
	C450.520874,142.802170 449.824615,144.491913 446.005920,144.449005 
	C429.012909,144.258072 412.015808,144.256210 395.022247,144.410812 
	C390.938049,144.447968 389.835175,142.713638 389.899384,139.018417 
	C389.962372,135.389877 391.027740,133.431427 395.113373,133.607590 
	C399.538269,133.798355 404.018646,133.848572 409.472321,132.536652 
	C405.117889,126.390640 401.187042,120.716881 397.096069,115.161041 
	C396.132812,113.852890 394.337830,114.184921 392.855743,114.182510 
	C374.361084,114.152481 355.866302,114.171196 337.371857,114.096039 
	C334.638397,114.084938 332.631622,114.841698 331.105408,117.268776 
	C327.844971,122.453598 323.543976,126.966057 321.293152,132.967896 
M348.650604,92.088173 
	C346.486969,95.727936 343.265045,98.736053 341.732880,103.311241 
	C357.407654,103.311241 372.671875,103.311241 389.057007,103.311241 
	C380.849792,91.491867 373.244568,80.539391 365.042969,68.728104 
	C359.292816,76.915604 354.173981,84.204178 348.650604,92.088173 
z"/>
<path fill="#000000" opacity="1.000000" stroke="none" 
	d="
M126.955124,227.268829 
	C114.774330,231.232529 104.644455,228.053513 96.089119,219.808914 
	C95.367882,220.211929 94.854607,220.358368 94.849030,220.522095 
	C94.632553,226.881088 90.739555,227.843674 85.407539,227.371384 
	C81.272202,227.005051 77.082008,227.281158 72.917244,227.210449 
	C71.558502,227.187393 70.197906,226.961060 69.889145,225.249344 
	C69.579201,223.531021 70.600403,222.904007 72.059486,222.530746 
	C76.514687,221.391037 77.941566,218.341263 77.925529,213.937943 
	C77.832664,188.443314 77.829834,162.948013 77.927246,137.453430 
	C77.941246,133.790649 76.991699,131.725876 72.939911,131.881531 
	C71.141434,131.950623 69.628456,131.188812 69.819107,128.923325 
	C69.996094,126.820168 71.622765,126.757851 73.123444,126.751160 
	C80.288223,126.719238 87.454147,126.818924 94.617867,126.728523 
	C98.382347,126.681023 98.357033,129.116852 98.352745,131.760574 
	C98.331978,144.571655 98.343376,157.382782 98.343376,170.142822 
	C99.999237,170.644089 100.309563,169.353668 100.854950,168.690659 
	C107.947151,160.068924 116.914833,156.184753 127.881729,158.979813 
	C138.975647,161.807251 145.369919,169.633392 147.677582,180.592789 
	C149.961349,191.438751 149.302017,202.121826 144.036667,212.170502 
	C140.338470,219.228348 134.906815,224.392487 126.955124,227.268829 
M115.879684,166.573120 
	C108.644829,166.468597 104.062119,169.590286 101.438751,177.101379 
	C97.259308,189.067688 97.232430,201.223129 100.875702,213.321167 
	C102.944122,220.189667 107.449646,223.795349 113.211105,223.776779 
	C118.550095,223.759583 122.689308,220.077362 124.615700,213.009781 
	C127.772751,201.427124 127.639305,189.660355 125.392059,177.978226 
	C124.435379,173.005005 122.072296,168.514816 115.879684,166.573120 
z"/>
<path fill="#000000" opacity="1.000000" stroke="none" 
	d="
M335.708984,264.987427 
	C331.301483,265.133026 327.344452,265.133026 322.280975,265.133026 
	C327.607239,272.112854 333.222076,277.200989 338.407745,282.657104 
	C343.227295,287.728058 348.260620,292.595856 353.199615,297.553284 
	C354.554535,298.913239 355.903748,300.230530 357.789795,298.270142 
	C367.933563,287.726410 378.082855,277.187988 388.718018,266.141113 
	C384.079132,264.750732 380.127197,265.243378 376.275146,265.331177 
	C372.296295,265.421906 371.541992,263.386353 371.606018,260.038300 
	C371.666534,256.873474 371.453918,253.984055 376.013000,254.010086 
	C391.841370,254.100494 407.670746,254.073639 423.499451,254.014526 
	C427.525787,253.999481 428.065338,256.430054 427.967072,259.616425 
	C427.874359,262.623108 427.764038,265.501190 423.556427,265.236816 
	C423.059021,265.205566 422.541504,265.330353 422.059631,265.240936 
	C408.874176,262.794525 399.463776,268.232605 391.114716,278.260223 
	C383.255493,287.699432 373.997711,295.987854 365.196472,304.620728 
	C362.522125,307.243896 360.960541,309.895325 361.291321,313.793884 
	C361.614014,317.597656 361.491882,321.460999 361.277374,325.282043 
	C361.078064,328.832428 362.643402,329.983337 366.000183,329.908264 
	C371.995331,329.774170 378.001221,330.046570 383.992676,329.848480 
	C388.514191,329.698914 389.110596,332.216675 389.144836,335.870270 
	C389.179504,339.566742 388.083954,341.306335 384.011505,341.277588 
	C364.684265,341.141083 345.354126,341.113129 326.028107,341.326263 
	C321.319000,341.378174 320.607666,339.261475 320.544586,335.263428 
	C320.478119,331.053741 322.069122,329.683929 326.107697,329.836456 
	C331.930847,330.056396 337.769989,329.812286 343.600372,329.897736 
	C346.530060,329.940643 348.011658,328.810455 347.752930,325.777893 
	C347.738800,325.612701 347.739288,325.442841 347.760010,325.278564 
	C349.107330,314.579437 346.490875,306.036499 337.565369,298.623138 
	C326.583801,289.502045 316.917664,278.781982 306.844482,268.593384 
	C304.401520,266.122437 301.863892,265.048462 298.446960,265.232483 
	C294.459503,265.447235 290.444061,265.130585 286.455017,265.329865 
	C282.720856,265.516449 281.431122,263.917725 281.537109,260.307312 
	C281.635437,256.956879 281.392639,253.910812 286.205994,253.972000 
	C296.534760,254.103348 306.866364,254.012726 317.196808,254.011398 
	C321.362366,254.010864 325.527954,254.006790 329.693512,254.003250 
	C337.872345,253.996323 339.566772,256.836273 335.708984,264.987427 
z"/>
<path fill="#000000" opacity="1.000000" stroke="none" 
	d="
M325.393127,158.117615 
	C332.576843,157.675858 339.182617,158.476685 345.444702,160.966599 
	C352.972137,163.959671 358.403870,168.925888 359.790710,177.437683 
	C360.896057,184.221893 358.498993,188.846588 352.072723,191.213806 
	C344.416748,194.033997 336.370361,194.100784 328.413727,193.644638 
	C315.787292,192.920792 315.794708,192.703384 317.384827,205.263504 
	C317.509491,206.248169 317.753723,207.219803 317.977295,208.189453 
	C319.621857,215.321442 322.287659,221.920425 330.481567,223.287430 
	C339.208832,224.743454 345.895050,220.690903 351.294647,214.058517 
	C352.675720,212.362122 353.234406,208.164581 356.443848,210.352188 
	C359.705536,212.575439 356.250549,215.183899 355.038513,217.080704 
	C350.069977,224.856384 342.276031,227.770035 333.503510,228.882446 
	C316.513458,231.036926 300.692322,221.229233 296.168976,205.613449 
	C290.725647,186.821823 297.755920,168.780975 313.419434,161.222260 
	C317.080353,159.455597 320.993011,158.759613 325.393127,158.117615 
M320.734589,168.322449 
	C319.002777,171.403214 318.011902,174.759644 317.423676,178.197556 
	C315.868317,187.288300 315.924774,187.297958 325.108307,188.301697 
	C336.289001,189.523743 339.450653,186.517624 338.630768,175.391190 
	C338.546143,174.242813 338.265839,173.105850 338.036102,171.971725 
	C337.245453,168.068085 335.926239,164.433060 331.516388,163.426163 
	C327.168396,162.433411 323.699066,164.073105 320.734589,168.322449 
z"/>
<path fill="#000000" opacity="1.000000" stroke="none" 
	d="
M276.165009,162.649429 
	C282.146088,166.088333 285.717285,170.807495 286.873749,177.324677 
	C288.053772,183.974716 285.466400,188.727844 279.176666,191.183167 
	C272.663849,193.725555 265.802643,193.559067 258.998718,193.708374 
	C255.845169,193.777573 252.684921,193.439072 249.526352,193.403168 
	C243.177155,193.330963 242.826736,193.824402 243.823349,200.349274 
	C244.450012,204.452103 244.821274,208.589432 246.266953,212.538986 
	C249.905518,222.479523 258.593475,226.322342 268.284637,221.988571 
	C272.727783,220.001663 276.693146,217.291199 279.136963,212.788925 
	C280.018005,211.165680 280.924042,208.546997 283.517639,210.288925 
	C285.917175,211.900543 284.122650,213.911621 283.165375,215.514114 
	C277.006622,225.823654 267.168610,229.180664 255.951553,229.047546 
	C233.367645,228.779541 219.916046,212.733246 221.711487,188.654953 
	C223.172150,169.066132 239.958969,155.894913 260.568726,158.194458 
	C265.884735,158.787598 271.105957,159.769592 276.165009,162.649429 
M258.786682,163.427017 
	C252.222565,163.010376 249.322662,164.793015 246.692886,170.570221 
	C244.660614,175.034821 244.392654,179.865250 243.520828,184.571274 
	C243.212143,186.237503 243.726868,187.755615 245.655182,187.786743 
	C250.430069,187.863876 255.174484,189.348724 259.989990,188.007614 
	C262.010193,187.444992 263.616211,186.563309 264.657257,184.651382 
	C267.927185,178.645920 265.244446,167.567612 258.786682,163.427017 
z"/>
<path fill="#000000" opacity="1.000000" stroke="none" 
	d="
M436.156799,160.015564 
	C444.128723,160.013336 451.621552,159.936996 459.111237,160.056168 
	C461.233490,160.089920 464.512878,159.224579 464.520630,162.703186 
	C464.527679,165.863068 461.397980,164.827835 459.438599,165.195435 
	C458.642090,165.344864 457.843811,165.485031 456.151123,165.791473 
	C461.851776,179.019699 467.393707,191.879578 472.935669,204.739456 
	C473.354584,204.757706 473.773529,204.775955 474.192444,204.794205 
	C479.245850,191.928253 484.299255,179.062286 489.346466,166.212082 
	C486.549713,164.573532 484.161255,165.450607 481.916443,165.122864 
	C480.330841,164.891342 478.873627,164.555191 478.889862,162.559738 
	C478.903778,160.849457 480.187256,160.239655 481.577606,160.217636 
	C487.731445,160.120209 493.887238,160.114334 500.042053,160.137375 
	C501.045837,160.141129 502.110168,160.515045 502.397400,161.625412 
	C502.737976,162.941910 502.026184,164.138138 500.849365,164.399918 
	C494.487335,165.815140 493.258545,171.252930 491.362854,176.187683 
	C484.324249,194.510712 477.320892,212.847351 470.246399,231.156525 
	C467.653595,237.866882 464.369476,244.227844 459.553741,249.646255 
	C451.932892,258.220825 438.919403,259.790588 430.680359,253.231796 
	C426.897858,250.220673 425.827271,245.756882 428.034149,242.198456 
	C429.995605,239.035782 434.754150,237.879639 438.257599,239.733536 
	C440.626251,240.986923 441.664307,243.301422 442.772980,245.535950 
	C445.883392,251.804947 449.718079,252.496750 454.564941,247.412216 
	C458.645630,243.131378 461.157867,237.844772 463.361359,232.424988 
	C464.174561,230.424942 463.609589,228.512909 462.755920,226.641296 
	C453.917267,207.263168 445.062225,187.892410 436.294708,168.482101 
	C435.276428,166.227737 433.937775,165.028275 431.402557,165.119019 
	C429.843994,165.174805 428.217163,164.791458 428.175385,162.812546 
	C428.126953,160.521286 430.035492,160.341919 431.687164,160.147842 
	C433.003967,159.993134 434.345795,160.051697 436.156799,160.015564 
z"/>
<path fill="#000000" opacity="1.000000" stroke="none" 
	d="
M414.953522,227.284149 
	C399.795807,227.278595 385.132538,227.299240 370.469635,227.235535 
	C368.580109,227.227325 366.163696,227.977493 365.105652,225.678604 
	C364.129547,223.557663 365.775330,221.942612 366.918060,220.304108 
	C378.638702,203.498322 390.348663,186.685059 402.039703,169.858688 
	C402.853546,168.687317 404.234253,167.741486 403.820465,165.557907 
	C397.954224,165.557907 392.010345,165.262299 386.115051,165.669632 
	C382.622162,165.910950 380.134552,168.469299 378.569550,171.615677 
	C376.938843,174.894211 375.467255,178.251511 373.885681,181.555023 
	C373.211334,182.963562 372.300629,184.196091 370.474457,183.898346 
	C368.394287,183.559204 368.552246,181.858139 368.591675,180.387131 
	C368.725525,175.394394 368.958923,170.404373 369.109680,165.411987 
	C369.226349,161.550735 370.961395,159.896790 375.018860,159.943420 
	C390.013336,160.115723 405.011353,159.958527 420.006989,160.068741 
	C425.632660,160.110092 426.576019,162.000107 423.368561,166.843201 
	C413.528320,181.701477 403.526917,196.453018 393.689758,211.313293 
	C391.617340,214.443970 389.085358,217.377502 387.852417,221.726837 
	C395.592072,222.924240 402.958740,223.586868 410.201080,221.136536 
	C413.761353,219.931976 415.587433,216.820938 416.619568,213.315186 
	C417.653381,209.803955 418.674805,206.287521 419.603180,202.747528 
	C419.993347,201.259674 420.724091,200.329071 422.319366,200.392883 
	C424.217010,200.468811 424.951233,201.741562 424.910553,203.413544 
	C424.740509,210.401581 424.498657,217.387939 424.269562,224.374451 
	C424.210510,226.175385 423.220398,227.114090 421.443542,227.174179 
	C419.446106,227.241776 417.446655,227.250107 414.953522,227.284149 
z"/>
<path fill="#000000" opacity="1.000000" stroke="none" 
	d="
M184.357697,190.346481 
	C184.349060,199.642853 184.526001,208.479919 184.269547,217.304382 
	C184.145630,221.568161 185.787369,223.092194 189.834579,222.612442 
	C191.484924,222.416824 193.158569,222.322800 194.820099,222.338989 
	C197.241608,222.362534 198.913193,223.320663 199.062241,225.839111 
	C197.774323,227.588547 196.159744,227.229065 194.735977,227.234039 
	C183.404663,227.273712 172.072906,227.292633 160.741974,227.216064 
	C158.910995,227.203705 156.334351,227.938583 155.936157,225.023148 
	C155.548370,222.184021 158.273834,222.722977 159.774353,222.149460 
	C162.699539,221.031418 163.931290,218.832916 163.941910,215.958694 
	C163.999802,200.296158 163.955383,184.633286 163.986328,168.970596 
	C163.991928,166.134171 162.532974,165.218399 159.909119,165.225067 
	C158.147995,165.229538 155.766983,165.414886 155.992874,162.677933 
	C156.215103,159.985168 158.675201,160.670593 160.341034,160.640320 
	C166.171555,160.534302 172.011948,160.764618 177.835037,160.530228 
	C181.912659,160.366104 183.749542,161.844070 183.383942,166.000168 
	C183.224762,167.809830 183.494415,169.626358 184.698486,171.743286 
	C189.206787,164.585037 195.366302,160.173721 203.637665,159.127075 
	C212.718231,157.978027 219.294128,165.253922 216.296936,173.096252 
	C214.802444,177.006668 212.070404,179.520920 207.886292,180.003235 
	C203.870224,180.466171 200.865463,178.646515 198.631165,175.291382 
	C197.224930,173.179703 196.443039,169.937408 192.991364,170.478531 
	C189.596527,171.010727 188.394028,174.011597 187.130981,176.754700 
	C185.213486,180.919174 185.076660,185.461777 184.357697,190.346481 
z"/>
</svg>